SplineFontDB: 3.0
FontName: PGLDings-NormalRegular
FullName: PGLDings-NormalRegular
FamilyName: PGLDings
Weight: Book
Version: 1.000
ItalicAngle: 0
UnderlinePosition: -204
UnderlineWidth: 51
Ascent: 768
Descent: 256
InvalidEm: 0
sfntRevision: 0x00010000
LayerCount: 2
Layer: 0 1 "Back" 1
Layer: 1 1 "Fore" 0
XUID: [1021 114 -229971076 18578]
StyleMap: 0x0040
FSType: 4
OS2Version: 3
OS2_WeightWidthSlopeOnly: 0
OS2_UseTypoMetrics: 0
CreationTime: 1372009723
ModificationTime: 1553550737
PfmFamily: 81
TTFWeight: 400
TTFWidth: 5
LineGap: 0
VLineGap: 0
Panose: 0 0 0 0 0 0 0 0 0 0
OS2TypoAscent: 768
OS2TypoAOffset: 0
OS2TypoDescent: -256
OS2TypoDOffset: 0
OS2TypoLinegap: 0
OS2WinAscent: 880
OS2WinAOffset: 0
OS2WinDescent: 83
OS2WinDOffset: 0
HheadAscent: 768
HheadAOffset: 0
HheadDescent: -256
HheadDOffset: 0
OS2SubXSize: 717
OS2SubYSize: 666
OS2SubXOff: 0
OS2SubYOff: 143
OS2SupXSize: 717
OS2SupYSize: 666
OS2SupXOff: 0
OS2SupYOff: 488
OS2StrikeYSize: 51
OS2StrikeYPos: 256
OS2CapHeight: 700
OS2XHeight: 500
OS2Vendor: 'PYRS'
OS2CodePages: 00000001.00000000
OS2UnicodeRanges: 00000000.10006000.00000000.00000000
MarkAttachClasses: 1
DEI: 91125
TtTable: prep
PUSHW_1
 0
CALL
SVTCA[y-axis]
PUSHW_3
 1
 1
 2
CALL
SVTCA[x-axis]
PUSHW_3
 2
 1
 2
CALL
SVTCA[x-axis]
PUSHW_8
 2
 67
 55
 43
 31
 19
 0
 8
CALL
SVTCA[y-axis]
PUSHW_8
 1
 67
 55
 43
 31
 19
 0
 8
CALL
SVTCA[y-axis]
PUSHW_3
 3
 1
 7
CALL
PUSHW_1
 0
DUP
RCVT
RDTG
ROUND[Black]
RTG
WCVTP
EndTTInstrs
TtTable: fpgm
PUSHW_1
 0
FDEF
MPPEM
PUSHW_1
 9
LT
IF
PUSHB_2
 1
 1
INSTCTRL
EIF
PUSHW_1
 511
SCANCTRL
PUSHW_1
 68
SCVTCI
PUSHW_2
 9
 3
SDS
SDB
ENDF
PUSHW_1
 1
FDEF
DUP
DUP
RCVT
ROUND[Black]
WCVTP
PUSHB_1
 1
ADD
ENDF
PUSHW_1
 2
FDEF
PUSHW_1
 1
LOOPCALL
POP
ENDF
PUSHW_1
 3
FDEF
DUP
GC[cur]
PUSHB_1
 3
CINDEX
GC[cur]
GT
IF
SWAP
EIF
DUP
ROLL
DUP
ROLL
MD[grid]
ABS
ROLL
DUP
GC[cur]
DUP
ROUND[Grey]
SUB
ABS
PUSHB_1
 4
CINDEX
GC[cur]
DUP
ROUND[Grey]
SUB
ABS
GT
IF
SWAP
NEG
ROLL
EIF
MDAP[rnd]
DUP
PUSHB_1
 0
GTEQ
IF
ROUND[Black]
DUP
PUSHB_1
 0
EQ
IF

StartChar: WideSmile2
Encoding: 57513 57513 0
Width: 755
Flags: W
HStem: 0 102<225 532> 102 103<123 225 532 635> 205 102<20 123 635 735> 410 308<225 328 430 532>
VStem: 20 103<205 307> 123 102<102 205> 225 103<410 718> 430 102<410 718> 532 103<102 205> 635 100<205 307>
LayerCount: 2
Fore
SplineSet
635 307 m 1,0,-1
 735 307 l 1,1,-1
 735 205 l 1,2,-1
 635 205 l 1,3,-1
 635 307 l 1,0,-1
532 205 m 1,4,-1
 635 205 l 1,5,-1
 635 102 l 1,6,-1
 532 102 l 1,7,-1
 532 205 l 1,4,-1
20 307 m 1,8,-1
 123 307 l 1,9,-1
 123 205 l 1,10,-1
 20 205 l 1,11,-1
 20 307 l 1,8,-1
123 205 m 1,12,-1
 225 205 l 1,13,-1
 225 102 l 1,14,-1
 123 102 l 1,15,-1
 123 205 l 1,12,-1
225 102 m 1,16,-1
 532 102 l 1,17,-1
 532 0 l 1,18,-1
 225 0 l 1,19,-1
 225 102 l 1,16,-1
328 718 m 1,20,-1
 328 410 l 1,21,-1
 225 410 l 1,22,-1
 225 718 l 1,23,-1
 328 718 l 1,20,-1
430 718 m 1,24,-1
 532 718 l 1,25,-1
 532 410 l 1,26,-1
 430 410 l 1,27,-1
 430 718 l 1,24,-1
EndSplineSet
Validated: 5
EndChar

StartChar: WideHappy2
Encoding: 57514 57514 1
Width: 757
Flags: W
HStem: 102 103<123 225 532 635> 410 102<20 123 635 737> 512 102<123 225 532 635>
VStem: 20 103<410 512> 123 102<102 205 512 614> 532 103<102 205 512 614> 635 102<410 512>
LayerCount: 2
Fore
SplineSet
532 205 m 1,0,-1
 635 205 l 1,1,-1
 635 102 l 1,2,-1
 532 102 l 1,3,-1
 532 205 l 1,0,-1
737 205 m 1,4,-1
 737 307 l 1,5,-1
 20 307 l 1,6,-1
 20 205 l 1,7,-1
 737 205 l 1,4,-1
123 205 m 1,8,-1
 225 205 l 1,9,-1
 225 102 l 1,10,-1
 123 102 l 1,11,-1
 123 205 l 1,8,-1
225 102 m 1,12,-1
 225 0 l 1,13,-1
 532 0 l 1,14,-1
 532 102 l 1,15,-1
 225 102 l 1,12,-1
532 512 m 1,16,-1
 430 512 l 1,17,-1
 430 410 l 1,18,-1
 532 410 l 1,19,-1
 532 512 l 1,16,-1
328 512 m 1,20,-1
 225 512 l 1,21,-1
 225 410 l 1,22,-1
 328 410 l 1,23,-1
 328 512 l 1,20,-1
20 512 m 1,24,-1
 123 512 l 1,25,-1
 123 410 l 1,26,-1
 20 410 l 1,27,-1
 20 512 l 1,24,-1
123 614 m 1,28,-1
 225 614 l 1,29,-1
 225 512 l 1,30,-1
 123 512 l 1,31,-1
 123 614 l 1,28,-1
635 512 m 1,32,-1
 737 512 l 1,33,-1
 737 410 l 1,34,-1
 635 410 l 1,35,-1
 635 512 l 1,32,-1
532 614 m 1,36,-1
 635 614 l 1,37,-1
 635 512 l 1,38,-1
 532 512 l 1,39,-1
 532 614 l 1,36,-1
EndSplineSet
Validated: 5
EndChar

StartChar: uniE081
Encoding: 57473 57473 2
Width: 755
GlyphClass: 2
Flags: W
HStem: 0 102<225 532> 102 103<123 225 532 635> 205 102<20 123 635 735> 410 308<225 328 430 532>
VStem: 20 103<205 307> 123 102<102 205> 225 103<410 718> 430 102<410 718> 532 103<102 205> 635 100<205 307>
LayerCount: 2
Fore
SplineSet
635 307 m 1,0,-1
 735 307 l 1,1,-1
 735 205 l 1,2,-1
 635 205 l 1,3,-1
 635 307 l 1,0,-1
532 205 m 1,4,-1
 635 205 l 1,5,-1
 635 102 l 1,6,-1
 532 102 l 1,7,-1
 532 205 l 1,4,-1
20 307 m 1,8,-1
 123 307 l 1,9,-1
 123 205 l 1,10,-1
 20 205 l 1,11,-1
 20 307 l 1,8,-1
123 205 m 1,12,-1
 225 205 l 1,13,-1
 225 102 l 1,14,-1
 123 102 l 1,15,-1
 123 205 l 1,12,-1
225 102 m 1,16,-1
 532 102 l 1,17,-1
 532 0 l 1,18,-1
 225 0 l 1,19,-1
 225 102 l 1,16,-1
328 718 m 1,20,-1
 328 410 l 1,21,-1
 225 410 l 1,22,-1
 225 718 l 1,23,-1
 328 718 l 1,20,-1
430 718 m 1,24,-1
 532 718 l 1,25,-1
 532 410 l 1,26,-1
 430 410 l 1,27,-1
 430 718 l 1,24,-1
EndSplineSet
Validated: 5
EndChar

StartChar: uniE082
Encoding: 57474 57474 3
Width: 757
GlyphClass: 2
Flags: W
HStem: 102 103<123 225 532 635> 410 102<20 123 635 737> 512 102<123 225 532 635>
VStem: 20 103<410 512> 123 102<102 205 512 614> 532 103<102 205 512 614> 635 102<410 512>
LayerCount: 2
Fore
SplineSet
532 205 m 1,0,-1
 635 205 l 1,1,-1
 635 102 l 1,2,-1
 532 102 l 1,3,-1
 532 205 l 1,0,-1
737 205 m 1,4,-1
 737 307 l 1,5,-1
 20 307 l 1,6,-1
 20 205 l 1,7,-1
 737 205 l 1,4,-1
123 205 m 1,8,-1
 225 205 l 1,9,-1
 225 102 l 1,10,-1
 123 102 l 1,11,-1
 123 205 l 1,8,-1
225 102 m 1,12,-1
 225 0 l 1,13,-1
 532 0 l 1,14,-1
 532 102 l 1,15,-1
 225 102 l 1,12,-1
532 512 m 1,16,-1
 430 512 l 1,17,-1
 430 410 l 1,18,-1
 532 410 l 1,19,-1
 532 512 l 1,16,-1
328 512 m 1,20,-1
 225 512 l 1,21,-1
 225 410 l 1,22,-1
 328 410 l 1,23,-1
 328 512 l 1,20,-1
20 512 m 1,24,-1
 123 512 l 1,25,-1
 123 410 l 1,26,-1
 20 410 l 1,27,-1
 20 512 l 1,24,-1
123 614 m 1,28,-1
 225 614 l 1,29,-1
 225 512 l 1,30,-1
 123 512 l 1,31,-1
 123 614 l 1,28,-1
635 512 m 1,32,-1
 737 512 l 1,33,-1
 737 410 l 1,34,-1
 635 410 l 1,35,-1
 635 512 l 1,32,-1
532 614 m 1,36,-1
 635 614 l 1,37,-1
 635 512 l 1,38,-1
 532 512 l 1,39,-1
 532 614 l 1,36,-1
EndSplineSet
Validated: 5
EndChar

StartChar: uniE083
Encoding: 57475 57475 4
Width: 757
GlyphClass: 2
Flags: W
HStem: 0 102<20 737> 205 102<225 532> 410 102<123 225 532 635> 512 102<225 328 430 532> 614 103<123 225 532 635>
VStem: 123 102<410 512 614 717> 225 103<512 614> 430 102<512 614> 532 103<410 512 614 717>
LayerCount: 2
Fore
SplineSet
532 102 m 1,0,-1
 635 102 l 1,1,-1
 635 205 l 1,2,-1
 532 205 l 1,3,-1
 532 102 l 1,0,-1
737 102 m 1,4,-1
 737 0 l 1,5,-1
 20 0 l 1,6,-1
 20 102 l 1,7,-1
 737 102 l 1,4,-1
123 102 m 1,8,-1
 225 102 l 1,9,-1
 225 205 l 1,10,-1
 123 205 l 1,11,-1
 123 102 l 1,8,-1
225 205 m 1,12,-1
 225 307 l 1,13,-1
 532 307 l 1,14,-1
 532 205 l 1,15,-1
 225 205 l 1,12,-1
532 614 m 1,16,-1
 532 717 l 1,17,-1
 635 717 l 1,18,-1
 635 614 l 1,19,-1
 532 614 l 1,16,-1
430 512 m 1,20,-1
 430 614 l 1,21,-1
 532 614 l 1,22,-1
 532 512 l 1,23,-1
 430 512 l 1,20,-1
532 410 m 1,24,-1
 532 512 l 1,25,-1
 635 512 l 1,26,-1
 635 410 l 1,27,-1
 532 410 l 1,24,-1
225 512 m 1,28,-1
 225 410 l 1,29,-1
 123 410 l 1,30,-1
 123 512 l 1,31,-1
 225 512 l 1,28,-1
225 717 m 1,32,-1
 225 614 l 1,33,-1
 123 614 l 1,34,-1
 123 717 l 1,35,-1
 225 717 l 1,32,-1
328 614 m 1,36,-1
 328 512 l 1,37,-1
 225 512 l 1,38,-1
 225 614 l 1,39,-1
 328 614 l 1,36,-1
EndSplineSet
Validated: 5
EndChar

StartChar: uniE084
Encoding: 57476 57476 5
Width: 757
GlyphClass: 2
Flags: W
HStem: 0 102<20 123 635 737> 205 102<225 532> 410 102<225 328 430 532> 512 102<123 225 532 635> 614 103<20 123 635 737>
VStem: 20 103<0 102 614 717> 123 102<512 614> 225 103<410 512> 430 102<410 512> 635 102<0 102 614 717>
LayerCount: 2
Fore
SplineSet
20 0 m 1,0,-1
 20 102 l 1,1,-1
 123 102 l 1,2,-1
 123 0 l 1,3,-1
 20 0 l 1,0,-1
635 0 m 1,4,-1
 635 102 l 1,5,-1
 737 102 l 1,6,-1
 737 0 l 1,7,-1
 635 0 l 1,4,-1
20 614 m 1,8,-1
 20 717 l 1,9,-1
 123 717 l 1,10,-1
 123 614 l 1,11,-1
 20 614 l 1,8,-1
635 614 m 1,12,-1
 635 717 l 1,13,-1
 737 717 l 1,14,-1
 737 614 l 1,15,-1
 635 614 l 1,12,-1
532 512 m 1,16,-1
 532 614 l 1,17,-1
 635 614 l 1,18,-1
 635 512 l 1,19,-1
 532 512 l 1,16,-1
430 410 m 1,20,-1
 430 512 l 1,21,-1
 532 512 l 1,22,-1
 532 410 l 1,23,-1
 430 410 l 1,20,-1
532 102 m 1,24,-1
 635 102 l 1,25,-1
 635 205 l 1,26,-1
 532 205 l 1,27,-1
 532 102 l 1,24,-1
225 307 m 1,28,-1
 532 307 l 1,29,-1
 532 205 l 1,30,-1
 225 205 l 1,31,-1
 225 307 l 1,28,-1
123 102 m 1,32,-1
 225 102 l 1,33,-1
 225 205 l 1,34,-1
 123 205 l 1,35,-1
 123 102 l 1,32,-1
225 410 m 1,36,-1
 225 512 l 1,37,-1
 328 512 l 1,38,-1
 328 410 l 1,39,-1
 225 410 l 1,36,-1
225 614 m 1,40,-1
 225 512 l 1,41,-1
 123 512 l 1,42,-1
 123 614 l 1,43,-1
 225 614 l 1,40,-1
EndSplineSet
Validated: 5
EndChar

StartChar: uniE085
Encoding: 57477 57477 6
Width: 719
GlyphClass: 2
Flags: W
HStem: 0 100<2 195.201>
VStem: 397 85<300.648 481>
LayerCount: 2
Fore
SplineSet
629 468 m 1,0,-1
 257 468 l 1,1,-1
 444 782 l 1,2,-1
 629 468 l 1,0,-1
482 481 m 1,3,4
 482 349 482 349 452 256 c 128,-1,5
 422 163 422 163 361 108 c 0,6,7
 331 79 331 79 294.5 59 c 128,-1,8
 258 39 258 39 212 25 c 0,9,10
 124 0 124 0 2 0 c 1,11,-1
 2 100 l 1,12,13
 105 100 105 100 173 116 c 0,14,15
 251 135 251 135 297 175 c 0,16,17
 347 218 347 218 372 291 c 0,18,19
 398 367 398 367 397 481 c 1,20,-1
 482 481 l 1,3,4
EndSplineSet
Validated: 37
EndChar

StartChar: adieresis
Encoding: 57478 57478 7
Width: 624
GlyphClass: 2
Flags: W
HStem: 0 21G<430.089 453.72> 301 13<394 480> 682 100<0 195.337>
VStem: 394 86<301 486.933>
LayerCount: 2
Fore
SplineSet
442 0 m 1,0,-1
 255 314 l 1,1,-1
 626 314 l 1,2,-1
 442 0 l 1,0,-1
359 675 m 0,3,4
 420 617 420 617 450 526 c 0,5,6
 481 434 481 434 480 301 c 1,7,-1
 394 301 l 1,8,9
 394 416 394 416 370 492 c 0,10,11
 345 565 345 565 294 608 c 0,12,13
 246 648 246 648 171 667 c 0,14,15
 101 682 101 682 0 682 c 1,16,-1
 0 782 l 1,17,18
 123 782 123 782 209 758 c 0,19,20
 299 732 299 732 359 675 c 0,3,4
EndSplineSet
Validated: 37
EndChar

StartChar: uniE087
Encoding: 57479 57479 8
Width: 721
GlyphClass: 2
Flags: W
HStem: -19 69<418 623> 282 66<328 532> 416 69<103 307> 717 66<13 217>
LayerCount: 2
Fore
SplineSet
217 717 m 1,0,-1
 13 717 l 1,1,-1
 13 783 l 1,2,-1
 314 783 l 1,3,-1
 314 717 l 1,4,-1
 103 485 l 1,5,-1
 307 485 l 1,6,-1
 307 416 l 1,7,-1
 1 416 l 1,8,-1
 1 485 l 1,9,-1
 217 717 l 1,0,-1
418 50 m 1,10,-1
 623 50 l 1,11,-1
 623 -19 l 1,12,-1
 316 -19 l 1,13,-1
 316 50 l 1,14,-1
 532 282 l 1,15,-1
 328 282 l 1,16,-1
 328 348 l 1,17,-1
 630 348 l 1,18,-1
 630 282 l 1,19,-1
 418 50 l 1,10,-1
EndSplineSet
Validated: 1
EndChar

StartChar: uniE08D
Encoding: 57485 57485 9
Width: 634
GlyphClass: 2
Flags: W
HStem: 340 82<95.7979 168.429 249.798 322.015 402.875 475.429>
VStem: 91 82<344.571 417.202> 245 82<344.805 417.195> 398 82<344.405 417.595>
LayerCount: 2
Fore
SplineSet
132 340 m 256,0,1
 123 340 123 340 116 343 c 0,2,3
 108 347 108 347 103 352 c 0,4,5
 98 356 98 356 94 365 c 0,6,7
 91 372 91 372 91 381 c 256,8,9
 91 390 91 390 94 396 c 0,10,11
 97 403 97 403 103 410 c 0,12,13
 107 415 107 415 116 419 c 0,14,15
 123 422 123 422 132 422 c 256,16,17
 141 422 141 422 147 419 c 0,18,19
 154 416 154 416 161 410 c 0,20,21
 167 404 167 404 170 396 c 0,22,23
 173 390 173 390 173 381 c 256,24,25
 173 372 173 372 170 365 c 0,26,27
 166 357 166 357 161 352 c 0,28,29
 155 346 155 346 147 343 c 0,30,31
 141 340 141 340 132 340 c 256,0,1
439 340 m 256,32,33
 430 340 430 340 423 343 c 0,34,35
 415 347 415 347 411 352 c 0,36,37
 406 356 406 356 401 365 c 0,38,39
 398 372 398 372 398 381 c 256,40,41
 398 390 398 390 401 396 c 0,42,43
 404 403 404 403 411 410 c 0,44,45
 415 415 415 415 423 419 c 0,46,47
 430 422 430 422 439 422 c 256,48,49
 448 422 448 422 455 419 c 128,-1,50
 462 416 462 416 468 410 c 256,51,52
 474 404 474 404 477 396 c 0,53,54
 480 390 480 390 480 381 c 256,55,56
 480 372 480 372 477 365 c 0,57,58
 473 357 473 357 468 352 c 0,59,60
 462 346 462 346 455 343 c 128,-1,61
 448 340 448 340 439 340 c 256,32,33
286 340 m 256,62,63
 277 340 277 340 269 343 c 0,64,65
 261 347 261 347 257 352 c 0,66,67
 252 356 252 356 248 365 c 0,68,69
 245 372 245 372 245 381 c 256,70,71
 245 390 245 390 248 396 c 0,72,73
 251 403 251 403 257 410 c 0,74,75
 261 415 261 415 269 419 c 0,76,77
 276 422 276 422 286 422 c 0,78,79
 295 422 295 422 301 419 c 0,80,81
 308 416 308 416 314 410 c 256,82,83
 320 404 320 404 324 396 c 0,84,85
 327 390 327 390 327 381 c 256,86,87
 327 372 327 372 324 365 c 0,88,89
 320 357 320 357 314 352 c 0,90,91
 308 346 308 346 301 343 c 0,92,93
 295 340 295 340 286 340 c 256,62,63
EndSplineSet
Validated: 1
EndChar

StartChar: uniE08E
Encoding: 57486 57486 10
Width: 570
GlyphClass: 2
Flags: W
HStem: 1 85<110.849 223.169> 392 85<111.578 223.957> 639 85<209 447 494 507>
VStem: 1 59<146.008 332.502> 274 60<144.434 347.4> 447 60<299 639 706 724>
LayerCount: 2
Fore
SplineSet
209 380 m 0,0,1
 189 392 189 392 167 392 c 0,2,3
 147 392 147 392 125 380 c 0,4,5
 107 369 107 369 92 347 c 0,6,7
 76 327 76 327 69 299 c 0,8,9
 61 268 61 268 60 240 c 0,10,11
 60 210 60 210 69 179 c 0,12,13
 73 165 73 165 78.5 153.5 c 128,-1,14
 84 142 84 142 92 131 c 0,15,16
 106 109 106 109 125 98 c 0,17,18
 147 86 147 86 167 86 c 0,19,20
 189 86 189 86 209 98 c 0,21,22
 219 103 219 103 226.5 111.5 c 128,-1,23
 234 120 234 120 243 131 c 0,24,25
 251 142 251 142 256.5 153.5 c 128,-1,26
 262 165 262 165 266 179 c 0,27,28
 274 210 274 210 274 240 c 0,29,30
 274 269 274 269 266 299 c 0,31,32
 259 327 259 327 243 347 c 0,33,34
 235 358 235 358 227 366.5 c 128,-1,35
 219 375 219 375 209 380 c 0,0,1
167 477 m 0,36,37
 200 477 200 477 232 459 c 0,38,39
 260 442 260 442 286 408 c 0,40,41
 309 375 309 375 322 332 c 0,42,43
 334 287 334 287 334 240 c 0,44,45
 334 191 334 191 322 146 c 0,46,47
 315 124 315 124 306 106 c 128,-1,48
 297 88 297 88 286 71 c 0,49,50
 260 37 260 37 232 19 c 0,51,52
 199 1 199 1 167 1 c 0,53,54
 133 1 133 1 102 19 c 0,55,56
 72 36 72 36 49 71 c 0,57,58
 38 88 38 88 29 106.5 c 128,-1,59
 20 125 20 125 13 146 c 0,60,61
 1 190 1 190 1 240 c 0,62,63
 1 287 1 287 13 332 c 0,64,65
 26 375 26 375 49 408 c 0,66,67
 73 442 73 442 102 459 c 0,68,69
 133 477 133 477 167 477 c 0,36,37
209 639 m 1,70,-1
 209 724 l 1,71,-1
 507 724 l 1,72,-1
 507 639 l 1,73,-1
 209 639 l 1,70,-1
507 299 m 1,74,-1
 447 299 l 1,75,-1
 447 724 l 1,76,-1
 507 724 l 1,77,-1
 507 299 l 1,74,-1
283 344 m 1,78,-1
 241 404 l 1,79,-1
 452 706 l 1,80,-1
 494 645 l 1,81,-1
 283 344 l 1,78,-1
EndSplineSet
Validated: 5
EndChar

StartChar: uniE08F
Encoding: 57487 57487 11
Width: 484
GlyphClass: 2
Flags: W
HStem: 128 85<1 418> 291 51<179 239> 682 85<152.884 266.46>
VStem: 42 59<437.29 621.863> 179 60<-83 342> 316 60<434.641 624.482>
LayerCount: 2
Fore
SplineSet
316 529 m 0,0,1
 316 544 316 544 314.5 559 c 128,-1,2
 313 574 313 574 308 589 c 0,3,4
 298 619 298 619 286 638 c 0,5,6
 270 660 270 660 251 671 c 0,7,8
 231 682 231 682 209 682 c 256,9,10
 187 682 187 682 168 671 c 0,11,12
 150 660 150 660 133 638 c 0,13,14
 119 618 119 618 111 589 c 0,15,16
 102 559 102 559 101 529 c 0,17,18
 101 497 101 497 111 470 c 0,19,20
 119 441 119 441 133 421 c 256,21,22
 147 401 147 401 168 388 c 0,23,24
 186 376 186 376 209 376 c 0,25,26
 231 376 231 376 251 388 c 256,27,28
 271 400 271 400 286 421 c 0,29,30
 298 440 298 440 308 470 c 0,31,32
 313 484 313 484 314.5 498.5 c 128,-1,33
 316 513 316 513 316 529 c 0,0,1
209 767 m 0,34,35
 244 767 244 767 274 749 c 0,36,37
 305 730 305 730 327 697 c 0,38,39
 339 681 339 681 347.5 662 c 128,-1,40
 356 643 356 643 362 622 c 0,41,42
 375 579 375 579 376 529 c 0,43,44
 376 479 376 479 362 436 c 0,45,46
 350 392 350 392 327 360 c 0,47,48
 303 327 303 327 274 309 c 0,49,50
 243 291 243 291 209 291 c 128,-1,51
 175 291 175 291 144 309 c 0,52,53
 113 328 113 328 91 360 c 0,54,55
 80 377 80 377 70.5 396 c 128,-1,56
 61 415 61 415 56 436 c 0,57,58
 42 478 42 478 42 529 c 0,59,60
 42 579 42 579 56 622 c 0,61,62
 66 664 66 664 91 697 c 0,63,64
 102 714 102 714 116 726.5 c 128,-1,65
 130 739 130 739 144 749 c 0,66,67
 175 767 175 767 209 767 c 0,34,35
1 128 m 1,68,-1
 1 213 l 1,69,-1
 418 213 l 1,70,-1
 418 128 l 1,71,-1
 1 128 l 1,68,-1
239 342 m 1,72,-1
 239 -83 l 1,73,-1
 179 -83 l 1,74,-1
 179 342 l 1,75,-1
 239 342 l 1,72,-1
EndSplineSet
Validated: 5
EndChar

StartChar: uniE090
Encoding: 57488 57488 12
Width: 634
GlyphClass: 2
Flags: W
HStem: 0 21G<206 288 288 370>
LayerCount: 2
Fore
SplineSet
83 502 m 0,0,1
 93 516 93 516 108 535.5 c 128,-1,2
 123 555 123 555 142 580 c 0,3,4
 165 608 165 608 180 627 c 128,-1,5
 195 646 195 646 203 657 c 0,6,7
 236 701 236 701 254 736 c 0,8,9
 266 758 266 758 274.5 778.5 c 128,-1,10
 283 799 283 799 288 818 c 1,11,-1
 288 247 l 2,12,13
 288 181 288 181 257 140 c 0,14,15
 231 104 231 104 185 93 c 0,16,17
 144 83 144 83 103 98 c 0,18,19
 60 113 60 113 41 151 c 0,20,21
 -14 244 -14 244 4 338 c 0,22,23
 13 377 13 377 35 422 c 0,24,25
 43 440 43 440 56 460 c 128,-1,26
 69 480 69 480 83 502 c 0,0,1
288 818 m 1,27,28
 293 799 293 799 301 778.5 c 128,-1,29
 309 758 309 758 322 736 c 0,30,31
 340 701 340 701 373 657 c 0,32,33
 381 646 381 646 396 626.5 c 128,-1,34
 411 607 411 607 433 580 c 0,35,36
 452 555 452 555 466.5 535.5 c 128,-1,37
 481 516 481 516 492 502 c 0,38,39
 507 480 507 480 519.5 460 c 128,-1,40
 532 440 532 440 541 422 c 0,41,42
 552 399 552 399 559 378.5 c 128,-1,43
 566 358 566 358 570 338 c 0,44,45
 588 245 588 245 535 151 c 0,46,47
 513 114 513 114 472 98 c 0,48,49
 431 83 431 83 390 93 c 0,50,51
 344 103 344 103 318 140 c 0,52,53
 287 180 287 180 288 247 c 2,54,-1
 288 818 l 1,27,28
288 260 m 2,55,-1
 288 0 l 1,56,-1
 206 0 l 2,57,58
 212 2 212 2 218 7 c 0,59,60
 226 12 226 12 233 21.5 c 128,-1,61
 240 31 240 31 247 42 c 0,62,63
 285 110 285 110 288 260 c 2,55,-1
357 7 m 0,64,65
 360 4 360 4 364 2.5 c 128,-1,66
 368 1 368 1 370 0 c 2,67,-1
 288 0 l 1,68,-1
 288 260 l 2,69,70
 289 113 289 113 329 42 c 0,71,72
 341 18 341 18 357 7 c 0,64,65
EndSplineSet
Validated: 37
EndChar

StartChar: uniE091
Encoding: 57489 57489 13
Width: 660
GlyphClass: 2
Flags: W
HStem: 133 348<64.0273 182.496 409.961 530.039> 267 55<224 348 350.5 369> 437 17<283 310>
VStem: 175 244<512.008 709.822> 224 21<271 322> 284 13<168.078 454> 297 12<179.672 222 382 454> 348 21<290 322>
LayerCount: 2
Fore
SplineSet
383 734 m 0,0,1
 399 710 399 710 409 679 c 0,2,3
 414 663 414 663 416.5 646 c 128,-1,4
 419 629 419 629 419 611 c 0,5,6
 419 594 419 594 416.5 577 c 128,-1,7
 414 560 414 560 409 544 c 0,8,9
 400 512 400 512 383 488 c 0,10,11
 367 463 367 463 344 452 c 0,12,13
 320 438 320 438 297 437 c 0,14,15
 272 437 272 437 250 452 c 0,16,17
 227 464 227 464 211 488 c 0,18,19
 193 515 193 515 185 544 c 0,20,21
 175 575 175 575 175 611 c 0,22,23
 175 648 175 648 185 679 c 0,24,25
 192 708 192 708 211 734 c 0,26,27
 227 759 227 759 250 771 c 0,28,29
 273 785 273 785 297 785 c 128,-1,30
 321 785 321 785 344 771 c 0,31,32
 367 759 367 759 383 734 c 0,0,1
76 467 m 0,33,34
 100 481 100 481 123 481 c 0,35,36
 148 481 148 481 171 467 c 0,37,38
 191 455 191 455 209 430 c 0,39,40
 225 407 225 407 236 375 c 0,41,42
 245 342 245 342 245 307 c 0,43,44
 245 271 245 271 236 240 c 0,45,46
 231 225 231 225 224.5 211 c 128,-1,47
 218 197 218 197 209 184 c 0,48,49
 192 159 192 159 171 147 c 0,50,51
 147 133 147 133 123 133 c 128,-1,52
 99 133 99 133 76 147 c 0,53,54
 57 158 57 158 37 184 c 0,55,56
 29 196 29 196 22 210 c 128,-1,57
 15 224 15 224 10 240 c 0,58,59
 6 256 6 256 3.5 273 c 128,-1,60
 1 290 1 290 1 307 c 256,61,62
 1 324 1 324 3.5 341 c 128,-1,63
 6 358 6 358 10 375 c 0,64,65
 15 390 15 390 22 404 c 128,-1,66
 29 418 29 418 37 430 c 0,67,68
 57 456 57 456 76 467 c 0,33,34
384 430 m 0,69,70
 400 455 400 455 423 467 c 0,71,72
 447 481 447 481 470 481 c 0,73,74
 495 481 495 481 517 467 c 0,75,76
 540 455 540 455 556 430 c 0,77,78
 574 403 574 403 582 375 c 0,79,80
 592 344 592 344 592 307 c 256,81,82
 592 270 592 270 582 240 c 0,83,84
 575 211 575 211 556 184 c 0,85,86
 540 159 540 159 517 147 c 0,87,88
 494 133 494 133 470 133 c 128,-1,89
 446 133 446 133 423 147 c 0,90,91
 400 159 400 159 384 184 c 0,92,93
 368 208 368 208 358 240 c 0,94,95
 353 256 353 256 350.5 273 c 128,-1,96
 348 290 348 290 348 307 c 256,97,98
 348 324 348 324 350.5 341 c 128,-1,99
 353 358 353 358 358 375 c 0,100,101
 368 406 368 406 384 430 c 0,69,70
297 -9 m 1,102,-1
 225 -9 l 2,103,104
 269 -8 269 -8 281 222 c 0,105,106
 283 258 283 258 284 298 c 128,-1,107
 285 338 285 338 284 382 c 0,108,109
 284 404 284 404 284 421.5 c 128,-1,110
 284 439 284 439 283 454 c 1,111,-1
 297 454 l 1,112,-1
 297 -9 l 1,102,-1
310 454 m 1,113,114
 310 440 310 440 309.5 421.5 c 128,-1,115
 309 403 309 403 309 382 c 0,116,117
 309 294 309 294 312 222 c 0,118,119
 315 171 315 171 319.5 132 c 128,-1,120
 324 93 324 93 330 63 c 0,121,122
 344 -8 344 -8 369 -9 c 2,123,-1
 297 -9 l 1,124,-1
 297 454 l 1,125,-1
 310 454 l 1,113,114
224 267 m 1,126,-1
 224 322 l 1,127,-1
 369 322 l 1,128,-1
 369 267 l 1,129,-1
 224 267 l 1,126,-1
EndSplineSet
Validated: 37
EndChar

StartChar: uniE092
Encoding: 57490 57490 14
Width: 641
GlyphClass: 2
Flags: W
HStem: 0 21G<289.5 298.5>
VStem: 261 34<68.4756 108.234> 294 1<0 628>
LayerCount: 2
Fore
SplineSet
109 758 m 0,0,1
 151 776 151 776 193 759 c 0,2,3
 238 741 238 741 264 687 c 0,4,5
 295 629 295 629 295 541 c 2,6,-1
 295 0 l 1,7,8
 284 41 284 41 261 81 c 0,9,10
 241 116 241 116 209 158 c 0,11,12
 201 169 201 169 186 187.5 c 128,-1,13
 171 206 171 206 147 233 c 0,14,15
 127 257 127 257 112.5 276.5 c 128,-1,16
 98 296 98 296 87 310 c 0,17,18
 71 332 71 332 58.5 352.5 c 128,-1,19
 46 373 46 373 36 391 c 0,20,21
 25 414 25 414 17 436 c 128,-1,22
 9 458 9 458 5 479 c 0,23,24
 -15 579 -15 579 39 687 c 0,25,26
 65 738 65 738 109 758 c 0,0,1
479 758 m 0,27,28
 522 739 522 739 549 687 c 0,29,30
 602 581 602 581 584 479 c 0,31,32
 575 435 575 435 553 391 c 0,33,34
 533 353 533 353 502 310 c 0,35,36
 491 296 491 296 476 276.5 c 128,-1,37
 461 257 461 257 441 233 c 0,38,39
 417 205 417 205 402.5 187 c 128,-1,40
 388 169 388 169 380 158 c 0,41,42
 347 116 347 116 328 81 c 0,43,44
 303 40 303 40 294 0 c 1,45,-1
 294 541 l 2,46,47
 294 628 294 628 324 687 c 0,48,49
 353 741 353 741 395 759 c 0,50,51
 438 776 438 776 479 758 c 0,27,28
EndSplineSet
Validated: 37
EndChar

StartChar: uniE093
Encoding: 57491 57491 15
Width: 671
GlyphClass: 2
Flags: W
LayerCount: 2
Fore
SplineSet
300 -44 m 1,0,1
 291 -24 291 -24 280 1 c 128,-1,2
 269 26 269 26 256 52 c 0,3,4
 231 104 231 104 208 145.5 c 128,-1,5
 185 187 185 187 164 220 c 0,6,7
 121 286 121 286 56 356 c 0,8,9
 41 373 41 373 27.5 386.5 c 128,-1,10
 14 400 14 400 3 412 c 1,11,12
 14 423 14 423 27.5 436.5 c 128,-1,13
 41 450 41 450 56 467 c 0,14,15
 121 538 121 538 164 603 c 0,16,17
 186 636 186 636 208.5 677.5 c 128,-1,18
 231 719 231 719 256 771 c 0,19,20
 269 798 269 798 280 821.5 c 128,-1,21
 291 845 291 845 300 867 c 1,22,23
 308 847 308 847 319 823 c 128,-1,24
 330 799 330 799 343 771 c 0,25,26
 368 719 368 719 391 677.5 c 128,-1,27
 414 636 414 636 435 603 c 0,28,29
 478 537 478 537 543 467 c 0,30,31
 558 450 558 450 571.5 436.5 c 128,-1,32
 585 423 585 423 596 412 c 1,33,34
 585 401 585 401 571.5 387.5 c 128,-1,35
 558 374 558 374 543 356 c 0,36,37
 478 285 478 285 435 220 c 0,38,39
 413 187 413 187 390.5 145.5 c 128,-1,40
 368 104 368 104 343 52 c 0,41,42
 330 24 330 24 319 0 c 128,-1,43
 308 -24 308 -24 300 -44 c 1,0,1
EndSplineSet
Validated: 1
EndChar

StartChar: uniE094
Encoding: 57492 57492 16
Width: 724
GlyphClass: 2
Flags: W
LayerCount: 2
Fore
SplineSet
451 338 m 1,0,-1
 526 3 l 1,1,-1
 328 211 l 1,2,-1
 128 3 l 1,3,-1
 206 338 l 1,4,-1
 5 545 l 1,5,-1
 252 544 l 1,6,-1
 328 880 l 1,7,-1
 402 544 l 1,8,-1
 651 545 l 1,9,-1
 451 338 l 1,0,-1
EndSplineSet
Validated: 1
EndChar

StartChar: uniE095
Encoding: 57493 57493 17
Width: 638
GlyphClass: 2
Flags: W
HStem: -24 43<232.691 405.055> 113 43<250.536 387.314> 614 43<250.533 387.077> 751 43<232.87 404.876>
VStem: 33 30<262.368 506.131> 128 31<285.177 483.991> 479 31<285.177 484.063> 574 31<257.488 512.512>
LayerCount: 2
Fore
SplineSet
419 48 m 0,0,1
 463 75 463 75 501 127 c 0,2,3
 518 152 518 152 531.5 181 c 128,-1,4
 545 210 545 210 555 243 c 0,5,6
 565 277 565 277 569.5 312.5 c 128,-1,7
 574 348 574 348 574 385 c 0,8,9
 574 462 574 462 555 527 c 0,10,11
 545 560 545 560 531.5 589 c 128,-1,12
 518 618 518 618 501 644 c 0,13,14
 464 695 464 695 419 722 c 0,15,16
 372 751 372 751 318 751 c 0,17,18
 266 751 266 751 219 722 c 256,19,20
 172 693 172 693 137 644 c 0,21,22
 102 592 102 592 83 527 c 0,23,24
 64 461 64 461 63 385 c 0,25,26
 63 348 63 348 68 312 c 128,-1,27
 73 276 73 276 83 243 c 0,28,29
 102 177 102 177 137 127 c 0,30,31
 173 76 173 76 219 48 c 0,32,33
 266 19 266 19 318 19 c 0,34,35
 372 19 372 19 419 48 c 0,0,1
318 -24 m 0,36,37
 261 -24 261 -24 208 9 c 0,38,39
 157 39 157 39 117 96 c 0,40,41
 78 150 78 150 56 226 c 0,42,43
 32 303 32 303 33 385 c 0,44,45
 33 467 33 467 56 544 c 0,46,47
 78 620 78 620 117 674 c 0,48,49
 157 730 157 730 208 762 c 0,50,51
 262 794 262 794 318 794 c 0,52,53
 375 794 375 794 430 762 c 0,54,55
 481 730 481 730 521 674 c 0,56,57
 560 620 560 620 582 544 c 0,58,59
 606 467 606 467 605 385 c 0,60,61
 605 303 605 303 582 226 c 0,62,63
 560 150 560 150 521 96 c 0,64,65
 481 39 481 39 430 9 c 0,66,67
 376 -24 376 -24 318 -24 c 0,36,37
381 173 m 0,68,69
 410 191 410 191 433 222 c 0,70,71
 455 254 455 254 467 296 c 0,72,73
 479 339 479 339 479 385 c 0,74,75
 479 432 479 432 467 474 c 0,76,77
 455 515 455 515 433 548 c 0,78,79
 409 579 409 579 381 597 c 0,80,81
 353 614 353 614 318 614 c 0,82,83
 284 614 284 614 257 597 c 0,84,85
 227 579 227 579 205 548 c 0,86,87
 183 515 183 515 171 474 c 0,88,89
 159 432 159 432 159 385 c 0,90,91
 159 339 159 339 171 296 c 0,92,93
 183 254 183 254 205 222 c 0,94,95
 228 191 228 191 257 173 c 0,96,97
 287 156 287 156 318 156 c 0,98,99
 351 156 351 156 381 173 c 0,68,69
318 113 m 256,100,101
 279 113 279 113 245 134 c 0,102,103
 210 157 210 157 184 193 c 0,104,105
 158 231 158 231 143 280 c 0,106,107
 128 330 128 330 128 385 c 256,108,109
 128 440 128 440 143 492 c 0,110,111
 151 516 151 516 161 537.5 c 128,-1,112
 171 559 171 559 184 578 c 0,113,114
 210 616 210 616 245 636 c 0,115,116
 280 658 280 658 318 657 c 0,117,118
 357 657 357 657 393 636 c 0,119,120
 428 616 428 616 454 578 c 0,121,122
 468 560 468 560 477.5 537.5 c 128,-1,123
 487 515 487 515 495 492 c 0,124,125
 510 441 510 441 510 385 c 0,126,127
 510 330 510 330 495 280 c 0,128,129
 481 231 481 231 454 193 c 0,130,131
 428 157 428 157 393 134 c 0,132,133
 357 113 357 113 318 113 c 256,100,101
EndSplineSet
Validated: 33
EndChar

StartChar: uniE096
Encoding: 57494 57494 18
Width: 626
GlyphClass: 2
Flags: W
HStem: -28 43<228.691 400.876> 746 44<226.828 403.141>
VStem: 29 29<262.818 497.334> 570 31<253.488 508.512>
LayerCount: 2
Fore
SplineSet
415 44 m 0,0,1
 460 71 460 71 496 123 c 0,2,3
 531 172 531 172 551 239 c 0,4,5
 561 273 561 273 565.5 308.5 c 128,-1,6
 570 344 570 344 570 381 c 0,7,8
 570 458 570 458 551 523 c 0,9,10
 531 589 531 589 496 640 c 0,11,12
 461 690 461 690 415 718 c 0,13,14
 368 747 368 747 314 746 c 0,15,16
 262 746 262 746 215 718 c 0,17,18
 168 689 168 689 133 640 c 0,19,20
 98 588 98 588 79 523 c 0,21,22
 59 453 59 453 58 381 c 0,23,24
 58 308 58 308 79 239 c 0,25,26
 98 173 98 173 133 123 c 0,27,28
 169 72 169 72 215 44 c 0,29,30
 262 15 262 15 314 15 c 0,31,32
 368 15 368 15 415 44 c 0,0,1
314 -28 m 256,33,34
 257 -28 257 -28 204 5 c 0,35,36
 153 35 153 35 113 92 c 256,37,38
 73 149 73 149 51 222 c 0,39,40
 40 260 40 260 34.5 299.5 c 128,-1,41
 29 339 29 339 29 381 c 256,42,43
 29 423 29 423 34.5 462.5 c 128,-1,44
 40 502 40 502 51 540 c 0,45,46
 73 613 73 613 113 670 c 0,47,48
 153 726 153 726 204 758 c 0,49,50
 258 790 258 790 314 790 c 256,51,52
 370 790 370 790 426 758 c 0,53,54
 452 742 452 742 474.5 720 c 128,-1,55
 497 698 497 698 517 670 c 0,56,57
 556 616 556 616 578 540 c 0,58,59
 602 463 602 463 601 381 c 0,60,61
 601 299 601 299 578 222 c 0,62,63
 556 146 556 146 517 92 c 0,64,65
 478 37 478 37 426 5 c 0,66,67
 371 -28 371 -28 314 -28 c 256,33,34
EndSplineSet
Validated: 33
EndChar

StartChar: uniE097
Encoding: 57495 57495 19
Width: 653
GlyphClass: 2
Flags: W
HStem: -24 68<87 563> 725 69<87 563>
VStem: 39 48<44 725> 563 48<44 725>
LayerCount: 2
Fore
SplineSet
39 794 m 1,0,-1
 611 794 l 1,1,-1
 611 -24 l 1,2,-1
 39 -24 l 1,3,-1
 39 794 l 1,0,-1
87 725 m 1,4,-1
 87 44 l 1,5,-1
 563 44 l 1,6,-1
 563 725 l 1,7,-1
 87 725 l 1,4,-1
EndSplineSet
Validated: 1
EndChar

StartChar: uniE098
Encoding: 57496 57496 20
Width: 676
GlyphClass: 2
Flags: W
HStem: 87 61<86 515>
LayerCount: 2
Fore
SplineSet
515 148 m 1,0,-1
 300 590 l 1,1,-1
 86 148 l 1,2,-1
 515 148 l 1,0,-1
3 87 m 1,3,-1
 300 699 l 1,4,-1
 598 87 l 1,5,-1
 3 87 l 1,3,-1
EndSplineSet
Validated: 1
EndChar

StartChar: uniE099
Encoding: 57497 57497 21
Width: 708
GlyphClass: 2
Flags: W
LayerCount: 2
Fore
SplineSet
326 772 m 1,0,-1
 57 389 l 1,1,-1
 326 6 l 1,2,-1
 594 389 l 1,3,-1
 326 772 l 1,0,-1
647 389 m 1,4,-1
 326 -71 l 1,5,-1
 3 389 l 1,6,-1
 326 849 l 1,7,-1
 647 389 l 1,4,-1
EndSplineSet
Validated: 1
EndChar

StartChar: uniE09A
Encoding: 57498 57498 22
Width: 495
GlyphClass: 2
Flags: W
VStem: 204 32<195.928 636>
LayerCount: 2
Fore
SplineSet
388 554 m 0,0,1
 420 498 420 498 424 446 c 0,2,3
 430 367 430 367 381 268 c 0,4,5
 370 243 370 243 357 223 c 128,-1,6
 344 203 344 203 331 185 c 1,7,8
 338 201 338 201 343.5 220.5 c 128,-1,9
 349 240 349 240 354 262 c 0,10,11
 365 307 365 307 368 345 c 128,-1,12
 371 383 371 383 367 416 c 0,13,14
 363 434 363 434 358.5 451 c 128,-1,15
 354 468 354 468 347 482 c 0,16,17
 342 494 342 494 335 506.5 c 128,-1,18
 328 519 328 519 318 532 c 0,19,20
 313 539 313 539 304 551 c 128,-1,21
 295 563 295 563 281 580 c 128,-1,22
 267 597 267 597 255.5 611 c 128,-1,23
 244 625 244 625 236 636 c 1,24,-1
 236 120 l 1,25,26
 230 86 230 86 207 53 c 0,27,28
 184 22 184 22 157 9 c 0,29,30
 128 -6 128 -6 104 3 c 0,31,32
 77 12 77 12 66 48 c 0,33,34
 63 60 63 60 72 83 c 0,35,36
 77 93 77 93 84.5 104.5 c 128,-1,37
 92 116 92 116 102 127 c 0,38,39
 122 153 122 153 150 171 c 0,40,41
 179 194 179 194 204 202 c 1,42,-1
 204 827 l 1,43,44
 212 788 212 788 249 736 c 0,45,46
 256 727 256 727 263.5 716.5 c 128,-1,47
 271 706 271 706 283 693 c 0,48,49
 296 678 296 678 304.5 667 c 128,-1,50
 313 656 313 656 319 648 c 0,51,52
 343 620 343 620 360 596.5 c 128,-1,53
 377 573 377 573 388 554 c 0,0,1
EndSplineSet
Validated: 33
EndChar

StartChar: uniE09B
Encoding: 57499 57499 23
Width: 598
GlyphClass: 2
Flags: W
HStem: 0 85<238 297> 85 85<59 119 417 476> 170 85<178 357> 340 85<0 59 476 537> 510 86<178 357> 596 85<59 119 417 476> 681 85<238 297>
VStem: 0 59<340 425> 59 60<85 170 596 681> 119 59<255 510> 178 179<170 255 510 596> 238 59<0 85 681 766> 357 60<255 510> 417 59<85 170 596 681> 476 61<340 425>
LayerCount: 2
Fore
SplineSet
357 510 m 1,0,-1
 178 510 l 1,1,-1
 178 596 l 1,2,-1
 357 596 l 1,3,-1
 357 510 l 1,0,-1
357 170 m 1,4,-1
 178 170 l 1,5,-1
 178 255 l 1,6,-1
 357 255 l 1,7,-1
 357 170 l 1,4,-1
178 510 m 1,8,-1
 178 255 l 1,9,-1
 119 255 l 1,10,-1
 119 510 l 1,11,-1
 178 510 l 1,8,-1
417 510 m 1,12,-1
 417 255 l 1,13,-1
 357 255 l 1,14,-1
 357 510 l 1,15,-1
 417 510 l 1,12,-1
297 681 m 1,16,-1
 238 681 l 1,17,-1
 238 766 l 1,18,-1
 297 766 l 1,19,-1
 297 681 l 1,16,-1
417 681 m 1,20,-1
 476 681 l 1,21,-1
 476 596 l 1,22,-1
 417 596 l 1,23,-1
 417 681 l 1,20,-1
59 681 m 1,24,-1
 119 681 l 1,25,-1
 119 596 l 1,26,-1
 59 596 l 1,27,-1
 59 681 l 1,24,-1
537 425 m 1,28,-1
 537 340 l 1,29,-1
 476 340 l 1,30,-1
 476 425 l 1,31,-1
 537 425 l 1,28,-1
59 425 m 1,32,-1
 59 340 l 1,33,-1
 0 340 l 1,34,-1
 0 425 l 1,35,-1
 59 425 l 1,32,-1
476 85 m 1,36,-1
 417 85 l 1,37,-1
 417 170 l 1,38,-1
 476 170 l 1,39,-1
 476 85 l 1,36,-1
119 85 m 1,40,-1
 59 85 l 1,41,-1
 59 170 l 1,42,-1
 119 170 l 1,43,-1
 119 85 l 1,40,-1
297 0 m 1,44,-1
 238 0 l 1,45,-1
 238 85 l 1,46,-1
 297 85 l 1,47,-1
 297 0 l 1,44,-1
EndSplineSet
Validated: 5
EndChar

StartChar: uniE09C
Encoding: 57500 57500 24
Width: 601
GlyphClass: 2
Flags: W
HStem: 0 85<119 238 297 417> 85 85<59 119 238 297 417 476> 170 85<297 357> 425 85<59 178 357 476> 510 86<119 178 357 417> 596 85<178 357>
VStem: 0 59<170 425> 59 60<85 170> 119 119<0 85> 119 59<510 596> 238 59<85 170> 297 60<170 255> 357 60<510 596> 417 59<85 170> 476 61<170 425>
LayerCount: 2
Fore
SplineSet
357 596 m 1,0,-1
 178 596 l 1,1,-1
 178 681 l 1,2,-1
 357 681 l 1,3,-1
 357 596 l 1,0,-1
119 85 m 1,4,-1
 238 85 l 1,5,-1
 238 0 l 1,6,-1
 119 0 l 1,7,-1
 119 85 l 1,4,-1
297 85 m 1,8,-1
 417 85 l 1,9,-1
 417 0 l 1,10,-1
 297 0 l 1,11,-1
 297 85 l 1,8,-1
59 425 m 1,12,-1
 59 170 l 1,13,-1
 0 170 l 1,14,-1
 0 425 l 1,15,-1
 59 425 l 1,12,-1
537 425 m 1,16,-1
 537 170 l 1,17,-1
 476 170 l 1,18,-1
 476 425 l 1,19,-1
 537 425 l 1,16,-1
178 510 m 1,20,-1
 119 510 l 1,21,-1
 119 596 l 1,22,-1
 178 596 l 1,23,-1
 178 510 l 1,20,-1
417 510 m 1,24,-1
 357 510 l 1,25,-1
 357 596 l 1,26,-1
 417 596 l 1,27,-1
 417 510 l 1,24,-1
59 510 m 1,28,-1
 178 510 l 1,29,-1
 178 425 l 1,30,-1
 59 425 l 1,31,-1
 59 510 l 1,28,-1
357 510 m 1,32,-1
 476 510 l 1,33,-1
 476 425 l 1,34,-1
 357 425 l 1,35,-1
 357 510 l 1,32,-1
476 85 m 1,36,-1
 417 85 l 1,37,-1
 417 170 l 1,38,-1
 476 170 l 1,39,-1
 476 85 l 1,36,-1
119 85 m 1,40,-1
 59 85 l 1,41,-1
 59 170 l 1,42,-1
 119 170 l 1,43,-1
 119 85 l 1,40,-1
297 85 m 1,44,-1
 238 85 l 1,45,-1
 238 170 l 1,46,-1
 297 170 l 1,47,-1
 297 85 l 1,44,-1
297 255 m 1,48,-1
 357 255 l 1,49,-1
 357 170 l 1,50,-1
 297 170 l 1,51,-1
 297 255 l 1,48,-1
EndSplineSet
Validated: 5
EndChar

StartChar: uniE09D
Encoding: 57501 57501 25
Width: 596
GlyphClass: 2
Flags: W
HStem: 0 85<297 357> 85 85<357 417> 425 85<0 59 297 537> 510 86<59 119 417 476> 596 85<119 238 297 417>
VStem: 238 59<85 425 681 766> 297 60<0 85> 357 60<85 170>
LayerCount: 2
Fore
SplineSet
417 596 m 1,0,-1
 119 596 l 1,1,-1
 119 681 l 1,2,-1
 417 681 l 1,3,-1
 417 596 l 1,0,-1
476 510 m 1,4,-1
 59 510 l 1,5,-1
 59 596 l 1,6,-1
 476 596 l 1,7,-1
 476 510 l 1,4,-1
537 425 m 1,8,-1
 0 425 l 1,9,-1
 0 510 l 1,10,-1
 537 510 l 1,11,-1
 537 425 l 1,8,-1
238 425 m 1,12,-1
 297 425 l 1,13,-1
 297 85 l 1,14,-1
 238 85 l 1,15,-1
 238 425 l 1,12,-1
297 681 m 1,16,-1
 238 681 l 1,17,-1
 238 766 l 1,18,-1
 297 766 l 1,19,-1
 297 681 l 1,16,-1
357 170 m 1,20,-1
 417 170 l 1,21,-1
 417 85 l 1,22,-1
 357 85 l 1,23,-1
 357 170 l 1,20,-1
357 85 m 1,24,-1
 357 0 l 1,25,-1
 297 0 l 1,26,-1
 297 85 l 1,27,-1
 357 85 l 1,24,-1
EndSplineSet
Validated: 5
EndChar

StartChar: uniE09E
Encoding: 57502 57502 26
Width: 481
GlyphClass: 2
Flags: W
HStem: 0 85<119 297> 85 85<59 119 297 357> 425 85<119 178 238 297> 681 85<119 297>
VStem: 0 59<170 425> 59 119<425 510> 59 60<85 170 510 681> 119 178<0 85 681 766> 238 119<425 510> 297 60<85 170 510 681> 357 60<170 425>
LayerCount: 2
Fore
SplineSet
297 681 m 1,0,-1
 119 681 l 1,1,-1
 119 766 l 1,2,-1
 297 766 l 1,3,-1
 297 681 l 1,0,-1
297 0 m 1,4,-1
 119 0 l 1,5,-1
 119 85 l 1,6,-1
 297 85 l 1,7,-1
 297 0 l 1,4,-1
59 510 m 1,8,-1
 178 510 l 1,9,-1
 178 425 l 1,10,-1
 59 425 l 1,11,-1
 59 510 l 1,8,-1
238 510 m 1,12,-1
 357 510 l 1,13,-1
 357 425 l 1,14,-1
 238 425 l 1,15,-1
 238 510 l 1,12,-1
59 681 m 1,16,-1
 119 681 l 1,17,-1
 119 510 l 1,18,-1
 59 510 l 1,19,-1
 59 681 l 1,16,-1
59 425 m 1,20,-1
 59 170 l 1,21,-1
 0 170 l 1,22,-1
 0 425 l 1,23,-1
 59 425 l 1,20,-1
417 425 m 1,24,-1
 417 170 l 1,25,-1
 357 170 l 1,26,-1
 357 425 l 1,27,-1
 417 425 l 1,24,-1
297 681 m 1,28,-1
 357 681 l 1,29,-1
 357 510 l 1,30,-1
 297 510 l 1,31,-1
 297 681 l 1,28,-1
297 170 m 1,32,-1
 357 170 l 1,33,-1
 357 85 l 1,34,-1
 297 85 l 1,35,-1
 297 170 l 1,32,-1
59 170 m 1,36,-1
 119 170 l 1,37,-1
 119 85 l 1,38,-1
 59 85 l 1,39,-1
 59 170 l 1,36,-1
EndSplineSet
Validated: 5
EndChar

StartChar: uniE09F
Encoding: 57503 57503 27
Width: 528
GlyphClass: 2
Flags: W
HStem: 0 102<158 372> 102 103<86 158 372 444> 205 102<14 86 444 514>
VStem: 14 72<205 307> 86 72<102 205> 158 72<410 718> 301 71<410 718> 372 72<102 205> 444 70<205 307>
LayerCount: 2
Fore
SplineSet
444 307 m 1,0,-1
 514 307 l 1,1,-1
 514 205 l 1,2,-1
 444 205 l 1,3,-1
 444 307 l 1,0,-1
372 205 m 1,4,-1
 444 205 l 1,5,-1
 444 102 l 1,6,-1
 372 102 l 1,7,-1
 372 205 l 1,4,-1
14 307 m 1,8,-1
 86 307 l 1,9,-1
 86 205 l 1,10,-1
 14 205 l 1,11,-1
 14 307 l 1,8,-1
86 205 m 1,12,-1
 158 205 l 1,13,-1
 158 102 l 1,14,-1
 86 102 l 1,15,-1
 86 205 l 1,12,-1
158 102 m 1,16,-1
 372 102 l 1,17,-1
 372 0 l 1,18,-1
 158 0 l 1,19,-1
 158 102 l 1,16,-1
230 718 m 1,20,-1
 230 410 l 1,21,-1
 158 410 l 1,22,-1
 158 718 l 1,23,-1
 230 718 l 1,20,-1
301 718 m 1,24,-1
 372 718 l 1,25,-1
 372 410 l 1,26,-1
 301 410 l 1,27,-1
 301 718 l 1,24,-1
EndSplineSet
Validated: 5
EndChar

StartChar: uniE0A0
Encoding: 57504 57504 28
Width: 529
GlyphClass: 2
Flags: W
HStem: 102 103<86 158 372 444> 410 102<14 86 444 516> 512 102<86 158 372 444>
VStem: 14 72<410 512> 86 72<102 205 512 614> 372 72<102 205 512 614> 444 72<410 512>
LayerCount: 2
Fore
SplineSet
372 205 m 1,0,-1
 444 205 l 1,1,-1
 444 102 l 1,2,-1
 372 102 l 1,3,-1
 372 205 l 1,0,-1
516 205 m 1,4,-1
 516 307 l 1,5,-1
 14 307 l 1,6,-1
 14 205 l 1,7,-1
 516 205 l 1,4,-1
86 205 m 1,8,-1
 158 205 l 1,9,-1
 158 102 l 1,10,-1
 86 102 l 1,11,-1
 86 205 l 1,8,-1
158 102 m 1,12,-1
 158 0 l 1,13,-1
 372 0 l 1,14,-1
 372 102 l 1,15,-1
 158 102 l 1,12,-1
372 512 m 1,16,-1
 301 512 l 1,17,-1
 301 410 l 1,18,-1
 372 410 l 1,19,-1
 372 512 l 1,16,-1
230 512 m 1,20,-1
 158 512 l 1,21,-1
 158 410 l 1,22,-1
 230 410 l 1,23,-1
 230 512 l 1,20,-1
14 512 m 1,24,-1
 86 512 l 1,25,-1
 86 410 l 1,26,-1
 14 410 l 1,27,-1
 14 512 l 1,24,-1
86 614 m 1,28,-1
 158 614 l 1,29,-1
 158 512 l 1,30,-1
 86 512 l 1,31,-1
 86 614 l 1,28,-1
444 512 m 1,32,-1
 516 512 l 1,33,-1
 516 410 l 1,34,-1
 444 410 l 1,35,-1
 444 512 l 1,32,-1
372 614 m 1,36,-1
 444 614 l 1,37,-1
 444 512 l 1,38,-1
 372 512 l 1,39,-1
 372 614 l 1,36,-1
EndSplineSet
Validated: 5
EndChar

StartChar: uniE0A1
Encoding: 57505 57505 29
Width: 529
GlyphClass: 2
Flags: W
HStem: 0 102<14 516> 205 102<158 372> 410 102<86 158 372 444> 512 102<158 230 301 372> 614 103<86 158 372 444>
VStem: 86 72<410 512 614 717> 158 72<512 614> 301 71<512 614> 372 72<410 512 614 717>
LayerCount: 2
Fore
SplineSet
372 102 m 1,0,-1
 444 102 l 1,1,-1
 444 205 l 1,2,-1
 372 205 l 1,3,-1
 372 102 l 1,0,-1
516 102 m 1,4,-1
 516 0 l 1,5,-1
 14 0 l 1,6,-1
 14 102 l 1,7,-1
 516 102 l 1,4,-1
86 102 m 1,8,-1
 158 102 l 1,9,-1
 158 205 l 1,10,-1
 86 205 l 1,11,-1
 86 102 l 1,8,-1
158 205 m 1,12,-1
 158 307 l 1,13,-1
 372 307 l 1,14,-1
 372 205 l 1,15,-1
 158 205 l 1,12,-1
372 614 m 1,16,-1
 372 717 l 1,17,-1
 444 717 l 1,18,-1
 444 614 l 1,19,-1
 372 614 l 1,16,-1
301 512 m 1,20,-1
 301 614 l 1,21,-1
 372 614 l 1,22,-1
 372 512 l 1,23,-1
 301 512 l 1,20,-1
372 410 m 1,24,-1
 372 512 l 1,25,-1
 444 512 l 1,26,-1
 444 410 l 1,27,-1
 372 410 l 1,24,-1
158 512 m 1,28,-1
 158 410 l 1,29,-1
 86 410 l 1,30,-1
 86 512 l 1,31,-1
 158 512 l 1,28,-1
158 717 m 1,32,-1
 158 614 l 1,33,-1
 86 614 l 1,34,-1
 86 717 l 1,35,-1
 158 717 l 1,32,-1
230 614 m 1,36,-1
 230 512 l 1,37,-1
 158 512 l 1,38,-1
 158 614 l 1,39,-1
 230 614 l 1,36,-1
EndSplineSet
Validated: 5
EndChar

StartChar: uniE0A2
Encoding: 57506 57506 30
Width: 529
GlyphClass: 2
Flags: W
HStem: 0 102<14 86 444 516> 205 102<158 372> 410 102<158 230 301 372> 512 102<86 158 372 444> 614 103<14 86 444 516>
VStem: 14 72<0 102 614 717> 86 72<512 614> 158 72<410 512> 301 71<410 512> 372 72<512 614> 444 72<0 102 614 717>
LayerCount: 2
Fore
SplineSet
14 0 m 1,0,-1
 14 102 l 1,1,-1
 86 102 l 1,2,-1
 86 0 l 1,3,-1
 14 0 l 1,0,-1
444 0 m 1,4,-1
 444 102 l 1,5,-1
 516 102 l 1,6,-1
 516 0 l 1,7,-1
 444 0 l 1,4,-1
14 614 m 1,8,-1
 14 717 l 1,9,-1
 86 717 l 1,10,-1
 86 614 l 1,11,-1
 14 614 l 1,8,-1
444 614 m 1,12,-1
 444 717 l 1,13,-1
 516 717 l 1,14,-1
 516 614 l 1,15,-1
 444 614 l 1,12,-1
372 512 m 1,16,-1
 372 614 l 1,17,-1
 444 614 l 1,18,-1
 444 512 l 1,19,-1
 372 512 l 1,16,-1
301 410 m 1,20,-1
 301 512 l 1,21,-1
 372 512 l 1,22,-1
 372 410 l 1,23,-1
 301 410 l 1,20,-1
372 102 m 1,24,-1
 444 102 l 1,25,-1
 444 205 l 1,26,-1
 372 205 l 1,27,-1
 372 102 l 1,24,-1
158 307 m 1,28,-1
 372 307 l 1,29,-1
 372 205 l 1,30,-1
 158 205 l 1,31,-1
 158 307 l 1,28,-1
86 102 m 1,32,-1
 158 102 l 1,33,-1
 158 205 l 1,34,-1
 86 205 l 1,35,-1
 86 102 l 1,32,-1
158 410 m 1,36,-1
 158 512 l 1,37,-1
 230 512 l 1,38,-1
 230 410 l 1,39,-1
 158 410 l 1,36,-1
158 614 m 1,40,-1
 158 512 l 1,41,-1
 86 512 l 1,42,-1
 86 614 l 1,43,-1
 158 614 l 1,40,-1
EndSplineSet
Validated: 5
EndChar

StartChar: uniE0A3
Encoding: 57507 57507 31
Width: 503
GlyphClass: 2
Flags: W
HStem: 0 100<1 136.343>
VStem: 279 59<277.576 481>
LayerCount: 2
Fore
SplineSet
440 468 m 1,0,-1
 180 468 l 1,1,-1
 311 782 l 1,2,-1
 440 468 l 1,0,-1
338 481 m 1,3,4
 338 349 338 349 316 256 c 0,5,6
 305 210 305 210 289.5 173 c 128,-1,7
 274 136 274 136 253 108 c 0,8,9
 233 79 233 79 206.5 59 c 128,-1,10
 180 39 180 39 148 25 c 0,11,12
 87 0 87 0 1 0 c 1,13,-1
 1 100 l 1,14,15
 73 100 73 100 121 116 c 0,16,17
 174 134 174 134 208 175 c 0,18,19
 244 218 244 218 260 291 c 0,20,21
 278 368 278 368 279 481 c 1,22,-1
 338 481 l 1,3,4
EndSplineSet
Validated: 5
EndChar

StartChar: uniE0A4
Encoding: 57508 57508 32
Width: 437
GlyphClass: 2
Flags: W
HStem: 0 21G<300.656 317.217> 682 100<0 136.466>
VStem: 275 61<301 514.34>
LayerCount: 2
Fore
SplineSet
309 0 m 1,0,-1
 178 314 l 1,1,-1
 438 314 l 1,2,-1
 309 0 l 1,0,-1
252 675 m 0,3,4
 272 646 272 646 288 609 c 128,-1,5
 304 572 304 572 314 526 c 0,6,7
 336 434 336 434 336 301 c 1,8,-1
 275 301 l 1,9,10
 275 419 275 419 259 492 c 0,11,12
 241 567 241 567 206 608 c 0,13,14
 172 648 172 648 120 667 c 0,15,16
 71 682 71 682 0 682 c 1,17,-1
 0 782 l 1,18,19
 86 782 86 782 146 758 c 0,20,21
 179 745 179 745 204.5 724.5 c 128,-1,22
 230 704 230 704 252 675 c 0,3,4
EndSplineSet
Validated: 5
EndChar

StartChar: uniE0A5
Encoding: 57509 57509 33
Width: 504
GlyphClass: 2
Flags: W
HStem: -19 69<293 436> 282 66<229 373> 416 69<73 215> 717 66<9 152>
LayerCount: 2
Fore
SplineSet
152 717 m 1,0,-1
 9 717 l 1,1,-1
 9 783 l 1,2,-1
 220 783 l 1,3,-1
 220 717 l 1,4,-1
 73 485 l 1,5,-1
 215 485 l 1,6,-1
 215 416 l 1,7,-1
 1 416 l 1,8,-1
 1 485 l 1,9,-1
 152 717 l 1,0,-1
293 50 m 1,10,-1
 436 50 l 1,11,-1
 436 -19 l 1,12,-1
 221 -19 l 1,13,-1
 221 50 l 1,14,-1
 373 282 l 1,15,-1
 229 282 l 1,16,-1
 229 348 l 1,17,-1
 440 348 l 1,18,-1
 440 282 l 1,19,-1
 293 50 l 1,10,-1
EndSplineSet
Validated: 1
EndChar

StartChar: uni0080
Encoding: 36 36 34
Width: 573
GlyphClass: 2
Flags: W
HStem: 49 103<20 174 276 430> 202 103<20 174 276 430> 407 61<276 452.359> 697 62<276 451.14>
VStem: 174 102<-78 49 152 202 305 407 468 697> 494 59<513.701 661.498>
LayerCount: 2
Fore
SplineSet
391 407 m 1,0,-1
 276 407 l 1,1,-1
 276 304 l 1,2,-1
 430 304 l 1,3,-1
 430 202 l 1,4,-1
 276 202 l 1,5,-1
 276 152 l 1,6,-1
 430 152 l 1,7,-1
 430 49 l 1,8,-1
 276 49 l 1,9,-1
 276 -78 l 1,10,-1
 174 -78 l 1,11,-1
 174 49 l 1,12,-1
 20 49 l 1,13,-1
 20 152 l 1,14,-1
 174 152 l 1,15,-1
 174 202 l 1,16,-1
 20 202 l 1,17,-1
 20 305 l 1,18,-1
 174 305 l 1,19,-1
 174 759 l 1,20,-1
 381 759 l 1,21,22
 462 745 462 745 507.5 695.5 c 128,-1,23
 553 646 553 646 553 583 c 0,24,25
 553 523 553 523 511 474 c 128,-1,26
 469 425 469 425 391 407 c 1,0,-1
276 697 m 1,27,-1
 276 468 l 1,28,-1
 416 468 l 1,29,30
 446 472 446 472 470 511 c 128,-1,31
 494 550 494 550 494 594 c 0,32,33
 494 630 494 630 474.5 658 c 128,-1,34
 455 686 455 686 416 697 c 1,35,-1
 276 697 l 1,27,-1
EndSplineSet
Validated: 1
EndChar

StartChar: uni0081
Encoding: 57510 57510 35
Width: 808
GlyphClass: 2
Flags: W
HStem: 0 21G<365 446 665.159 786> 477 51<102 227.621> 708 51<102 233.495>
VStem: 20 82<247 477 528 708> 255 69<555.65 686.543> 365 81<0 176 283 512>
LayerCount: 2
Fore
SplineSet
489 207 m 1,0,-1
 446 176 l 1,1,-1
 446 0 l 1,2,-1
 365 0 l 1,3,-1
 365 512 l 1,4,-1
 446 512 l 1,5,-1
 446 283 l 1,6,-1
 688 443 l 1,7,-1
 788 443 l 1,8,-1
 549 256 l 1,9,-1
 786 0 l 1,10,-1
 684 0 l 1,11,-1
 489 207 l 1,0,-1
102 247 m 1,12,-1
 20 247 l 1,13,-1
 20 759 l 1,14,-1
 186 759 l 1,15,16
 251 748 251 748 287.5 707.5 c 128,-1,17
 324 667 324 667 324 617 c 0,18,19
 324 569 324 569 290.5 530 c 128,-1,20
 257 491 257 491 195 477 c 1,21,-1
 102 477 l 1,22,-1
 102 247 l 1,12,-1
102 708 m 1,23,-1
 102 528 l 1,24,-1
 194 528 l 2,25,26
 217 528 217 528 236 561 c 0,27,28
 255 591 255 591 255 627 c 0,29,30
 255 691 255 691 194 708 c 1,31,-1
 102 708 l 1,23,-1
EndSplineSet
Validated: 1
EndChar

StartChar: uni0082
Encoding: 57511 57511 36
Width: 907
GlyphClass: 2
Flags: W
HStem: 0 21G<477 559 792.018 887>
VStem: 20 82<247 650> 354 82<247 646> 477 82<0 379> 805 82<133 512>
LayerCount: 2
Fore
SplineSet
887 0 m 1,0,-1
 805 0 l 1,1,-1
 559 379 l 1,2,-1
 559 0 l 1,3,-1
 477 0 l 1,4,-1
 477 512 l 1,5,-1
 559 512 l 1,6,-1
 805 133 l 1,7,-1
 805 512 l 1,8,-1
 887 512 l 1,9,-1
 887 0 l 1,0,-1
253 419 m 1,10,-1
 204 419 l 1,11,-1
 102 650 l 1,12,-1
 102 247 l 1,13,-1
 20 247 l 1,14,-1
 20 759 l 1,15,-1
 103 759 l 1,16,-1
 228 508 l 1,17,-1
 354 759 l 1,18,-1
 436 759 l 1,19,-1
 436 247 l 1,20,-1
 354 247 l 1,21,-1
 354 646 l 1,22,-1
 253 419 l 1,10,-1
EndSplineSet
Validated: 1
EndChar

StartChar: uni0083
Encoding: 57512 57512 37
Width: 242
GlyphClass: 2
Flags: W
HStem: 754 61<163.121 224>
VStem: 32 94<512 719.801 757 819>
LayerCount: 2
Fore
SplineSet
224 754 m 1,0,1
 192 754 192 754 159 729 c 128,-1,2
 126 704 126 704 126 684 c 2,3,-1
 126 512 l 1,4,-1
 32 512 l 1,5,-1
 32 819 l 1,6,-1
 124 819 l 1,7,-1
 124 757 l 1,8,9
 155 815 155 815 224 815 c 1,10,-1
 224 754 l 1,0,1
EndSplineSet
Validated: 1
EndChar

